<svg width="1200" height="630" viewBox="0 0 1200 630" xmlns="http://www.w3.org/2000/svg"><defs><linearGradient id="bg" x1="0" y1="0" x2="1" y2="1"><stop stop-color="#07111f"/><stop offset=".6" stop-color="#0f172a"/><stop offset="1" stop-color="#06101f"/></linearGradient><pattern id="grid" width="40" height="40" patternUnits="userSpaceOnUse"><path d="M40 0H0V40" fill="none" stroke="#1e293b" stroke-width="1"/></pattern></defs><rect width="1200" height="630" fill="url(#bg)"/><rect width="1200" height="630" fill="url(#grid)" opacity=".42"/><rect x="64" y="58" width="1072" height="514" rx="36" fill="#0f172a" fill-opacity=".84" stroke="#94a3b8" stroke-opacity=".36" stroke-width="2"/><rect x="96" y="92" width="150" height="8" rx="4" fill="#22d3ee"/><circle cx="109" cy="139" r="13" fill="#60a5fa"/><text x="138" y="145" fill="#bfdbfe" font-family="JetBrains Mono, Consolas, monospace" font-size="27" font-weight="800">tSamat · Enterprise AI Lab</text><text x="96" y="242" fill="#e5edf7" font-family="Inter, Arial, sans-serif" font-size="62" font-weight="800">Enterprise AI systems</text><text x="96" y="318" fill="#93c5fd" font-family="Inter, Arial, sans-serif" font-size="62" font-weight="800">from documents to decisions</text><text x="96" y="385" fill="#cbd5e1" font-family="Inter, Arial, sans-serif" font-size="27">GraphRAG · RAG gateways · evaluation · automation · platform ops</text><g font-family="Inter, Arial, sans-serif" font-weight="800"><rect x="96" y="414" width="288" height="46" rx="23" fill="#020617" stroke="#22d3ee" stroke-width="2"/><text x="115" y="444" fill="#e5edf7" font-size="23">source-grounded answers</text><rect x="402" y="414" width="171" height="46" rx="23" fill="#020617" stroke="#a78bfa" stroke-width="2"/><text x="421" y="444" fill="#e5edf7" font-size="23">quality loops</text><rect x="591" y="414" width="247" height="46" rx="23" fill="#020617" stroke="#34d399" stroke-width="2"/><text x="610" y="444" fill="#e5edf7" font-size="23">privacy-aware demos</text><rect x="96" y="486" width="278" height="50" rx="25" fill="#020617" stroke="#22d3ee" stroke-width="2"/><circle cx="120" cy="511" r="6" fill="#22d3ee"/><text x="138" y="519" fill="#e5edf7" font-size="20">AI RAG Gateway Demo</text><rect x="394" y="486" width="334" height="50" rx="25" fill="#020617" stroke="#a78bfa" stroke-width="2"/><circle cx="418" cy="511" r="6" fill="#a78bfa"/><text x="436" y="519" fill="#e5edf7" font-size="20">Document AI Evaluation</text><rect x="748" y="486" width="153" height="50" rx="25" fill="#020617" stroke="#34d399" stroke-width="2"/><circle cx="772" cy="511" r="6" fill="#34d399"/><text x="790" y="519" fill="#e5edf7" font-size="20">Tests + CI</text><rect x="921" y="486" width="238" height="50" rx="25" fill="#020617" stroke="#fbbf24" stroke-width="2"/><circle cx="945" cy="511" r="6" fill="#fbbf24"/><text x="963" y="519" fill="#e5edf7" font-size="20">Synthetic data only</text></g><text x="96" y="568" fill="#94a3b8" font-family="JetBrains Mono, Consolas, monospace" font-size="20">https://tsamat.github.io/</text><text x="632" y="568" fill="#94a3b8" font-family="JetBrains Mono, Consolas, monospace" font-size="20">Public portfolio · private data excluded</text></svg>